SplineFontDB: 3.0
FontName: Braille-cs
FullName: Braille-cs
FamilyName: Braille-cs
Weight: Medium
Copyright: Created by Timothy Hobbs,timothyhobbs@seznam.cz, with FontForge 2.0 (http://fontforge.sf.net)
UComments: "2011-10-27: Created." 
Version: 001.000
ItalicAngle: 0
UnderlinePosition: -100
UnderlineWidth: 50
Ascent: 800
Descent: 200
LayerCount: 2
Layer: 0 0 "Back"  1
Layer: 1 0 "Fore"  0
NeedsXUIDChange: 1
XUID: [1021 538 1776246111 13737101]
OS2Version: 0
OS2_WeightWidthSlopeOnly: 0
OS2_UseTypoMetrics: 1
CreationTime: 1319722438
ModificationTime: 1319723884
OS2TypoAscent: 0
OS2TypoAOffset: 1
OS2TypoDescent: 0
OS2TypoDOffset: 1
OS2TypoLinegap: 0
OS2WinAscent: 0
OS2WinAOffset: 1
OS2WinDescent: 0
OS2WinDOffset: 1
HheadAscent: 0
HheadAOffset: 1
HheadDescent: 0
HheadDOffset: 1
OS2Vendor: 'PfEd'
MarkAttachClasses: 1
DEI: 91125
Encoding: UnicodeFull
UnicodeInterp: none
NameList: Adobe Glyph List
DisplaySize: -96
AntiAlias: 1
FitToEm: 1
WinInfo: 340 5 5
BeginPrivate: 0
EndPrivate
BeginChars: 1114112 508

StartChar: backslash
Encoding: 92 92 61
Width: 600
VWidth: 0
Flags: HW
LayerCount: 2
Fore
SplineSet
400 798 m 1
 400 400 l 1
 0 400 l 1
 0 798 l 1
 400 798 l 1
400 398 m 1
 400 200 l 1
 200 200 l 1
 200 398 l 1
 400 398 l 1
EndSplineSet
Validated: 1
EndChar

StartChar: a
Encoding: 97 97 66
Width: 600
VWidth: 0
Flags: HW
LayerCount: 2
Fore
SplineSet
0 798 m 1
 200 798 l 1
 200 600 l 1
 0 600 l 1
 0 798 l 1
EndSplineSet
Validated: 1
EndChar

StartChar: b
Encoding: 98 98 67
Width: 600
VWidth: 0
Flags: HW
LayerCount: 2
Fore
SplineSet
0 798 m 1
 200 798 l 1
 200 400 l 1
 0 400 l 1
 0 798 l 1
EndSplineSet
Validated: 1
EndChar

StartChar: c
Encoding: 99 99 68
Width: 600
VWidth: 0
Flags: HW
LayerCount: 2
Fore
SplineSet
0 798 m 1
 400 798 l 1
 400 600 l 1
 0 600 l 1
 0 798 l 1
EndSplineSet
Validated: 1
EndChar

StartChar: d
Encoding: 100 100 69
Width: 600
VWidth: 0
Flags: HW
LayerCount: 2
Fore
SplineSet
400 798 m 1
 400 400 l 1
 200 400 l 1
 200 600 l 1
 0 600 l 1
 0 798 l 1
 200 798 l 1
 400 798 l 1
EndSplineSet
Validated: 1
EndChar

StartChar: e
Encoding: 101 101 70
Width: 600
VWidth: 0
Flags: HW
LayerCount: 2
Fore
SplineSet
200 598 m 1
 400 598 l 1
 400 400 l 1
 200 400 l 1
 200 598 l 1
0 798 m 1
 200 798 l 1
 200 600 l 1
 0 600 l 1
 0 798 l 1
EndSplineSet
Validated: 1
EndChar

StartChar: f
Encoding: 102 102 71
Width: 600
VWidth: 0
Flags: HW
LayerCount: 2
Fore
SplineSet
200 600 m 1
 200 400 l 1
 0 400 l 1
 0 798 l 1
 200 798 l 1
 400 798 l 1
 400 600 l 1
 200 600 l 1
EndSplineSet
Validated: 1
EndChar

StartChar: g
Encoding: 103 103 72
Width: 600
VWidth: 0
Flags: HW
LayerCount: 2
Fore
SplineSet
0 798 m 1
 400 798 l 1
 400 400 l 1
 0 400 l 1
 0 798 l 1
EndSplineSet
Validated: 1
EndChar

StartChar: h
Encoding: 104 104 73
Width: 600
VWidth: 0
Flags: HW
LayerCount: 2
Fore
SplineSet
0 400 m 1
 0 798 l 1
 200 798 l 1
 200 598 l 1
 400 598 l 1
 400 400 l 1
 200 400 l 1
 0 400 l 1
EndSplineSet
Validated: 1
EndChar

StartChar: i
Encoding: 105 105 74
Width: 600
VWidth: 0
Flags: HW
LayerCount: 2
Fore
SplineSet
200 598 m 1
 200 400 l 1
 0 400 l 1
 0 598 l 1
 200 598 l 1
400 798 m 1
 400 600 l 1
 200 600 l 1
 200 798 l 1
 400 798 l 1
EndSplineSet
Validated: 1
EndChar

StartChar: j
Encoding: 106 106 75
Width: 600
VWidth: 0
Flags: HW
LayerCount: 2
Fore
SplineSet
400 400 m 1
 200 400 l 1
 0 400 l 1
 0 598 l 1
 200 598 l 1
 200 798 l 1
 400 798 l 1
 400 400 l 1
EndSplineSet
Validated: 1
EndChar

StartChar: k
Encoding: 107 107 76
Width: 600
VWidth: 0
Flags: HW
LayerCount: 2
Fore
SplineSet
0 798 m 1
 200 798 l 1
 200 600 l 1
 0 600 l 1
 0 798 l 1
0 398 m 1
 200 398 l 1
 200 200 l 1
 0 200 l 1
 0 398 l 1
EndSplineSet
Validated: 1
EndChar

StartChar: l
Encoding: 108 108 77
Width: 600
VWidth: 0
Flags: HW
LayerCount: 2
Fore
SplineSet
0 798 m 1
 200 798 l 1
 200 200 l 1
 0 200 l 1
 0 798 l 1
EndSplineSet
Validated: 1
EndChar

StartChar: m
Encoding: 109 109 78
Width: 600
VWidth: 0
Flags: HW
LayerCount: 2
Fore
SplineSet
0 798 m 1
 400 798 l 1
 400 600 l 1
 0 600 l 1
 0 798 l 1
0 398 m 1
 200 398 l 1
 200 200 l 1
 0 200 l 1
 0 398 l 1
EndSplineSet
Validated: 1
EndChar

StartChar: n
Encoding: 110 110 79
Width: 600
VWidth: 0
Flags: HW
LayerCount: 2
Fore
SplineSet
400 798 m 1
 400 400 l 1
 200 400 l 1
 200 600 l 1
 0 600 l 1
 0 798 l 1
 200 798 l 1
 400 798 l 1
0 398 m 1
 200 398 l 1
 200 200 l 1
 0 200 l 1
 0 398 l 1
EndSplineSet
Validated: 1
EndChar

StartChar: o
Encoding: 111 111 80
Width: 600
VWidth: 0
Flags: HW
LayerCount: 2
Fore
SplineSet
0 798 m 1
 200 798 l 1
 200 600 l 1
 0 600 l 1
 0 798 l 1
0 398 m 1
 200 398 l 1
 200 200 l 1
 0 200 l 1
 0 398 l 1
200 598 m 1
 400 598 l 1
 400 400 l 1
 200 400 l 1
 200 598 l 1
EndSplineSet
Validated: 1
EndChar

StartChar: p
Encoding: 112 112 81
Width: 600
VWidth: 0
Flags: HW
LayerCount: 2
Fore
SplineSet
200 600 m 1
 200 200 l 1
 0 200 l 1
 0 798 l 1
 200 798 l 1
 400 798 l 1
 400 600 l 1
 200 600 l 1
EndSplineSet
Validated: 1
EndChar

StartChar: q
Encoding: 113 113 82
Width: 600
VWidth: 0
Flags: HW
LayerCount: 2
Fore
SplineSet
0 798 m 1
 400 798 l 1
 400 400 l 1
 0 400 l 1
 0 798 l 1
0 398 m 1
 200 398 l 1
 200 200 l 1
 0 200 l 1
 0 398 l 1
EndSplineSet
Validated: 1
EndChar

StartChar: r
Encoding: 114 114 83
Width: 600
VWidth: 0
Flags: HW
LayerCount: 2
Fore
SplineSet
0 798 m 1
 200 798 l 1
 200 598 l 1
 400 598 l 1
 400 400 l 1
 200 400 l 1
 200 200 l 1
 0 200 l 1
 0 798 l 1
EndSplineSet
Validated: 1
EndChar

StartChar: s
Encoding: 115 115 84
Width: 600
VWidth: 0
Flags: HW
LayerCount: 2
Fore
SplineSet
0 598 m 1
 200 598 l 1
 200 200 l 1
 0 200 l 1
 0 598 l 1
200 798 m 1
 400 798 l 1
 400 600 l 1
 200 600 l 1
 200 798 l 1
EndSplineSet
Validated: 1
EndChar

StartChar: t
Encoding: 116 116 85
Width: 600
VWidth: 0
Flags: HW
LayerCount: 2
Fore
SplineSet
200 798 m 1
 400 798 l 1
 400 400 l 1
 200 400 l 1
 200 200 l 1
 0 200 l 1
 0 598 l 1
 200 598 l 1
 200 798 l 1
EndSplineSet
Validated: 1
EndChar

StartChar: u
Encoding: 117 117 86
Width: 600
VWidth: 0
Flags: HW
LayerCount: 2
Fore
SplineSet
0 200 m 1
 0 398 l 1
 400 398 l 1
 400 200 l 1
 0 200 l 1
0 600 m 1
 0 798 l 1
 200 798 l 1
 200 600 l 1
 0 600 l 1
EndSplineSet
Validated: 1
EndChar

StartChar: v
Encoding: 118 118 87
Width: 600
VWidth: 0
Flags: HW
LayerCount: 2
Fore
SplineSet
200 398 m 1
 400 398 l 1
 400 200 l 1
 200 200 l 1
 0 200 l 1
 0 798 l 1
 200 798 l 1
 200 398 l 1
EndSplineSet
Validated: 1
EndChar

StartChar: w
Encoding: 119 119 88
Width: 600
VWidth: 0
Flags: HW
LayerCount: 2
Fore
SplineSet
0 200 m 1
 0 598 l 1
 400 598 l 1
 400 200 l 1
 0 200 l 1
0 600 m 1
 0 798 l 1
 200 798 l 1
 200 600 l 1
 0 600 l 1
EndSplineSet
Validated: 1
EndChar

StartChar: x
Encoding: 120 120 89
Width: 600
VWidth: 0
Flags: HW
LayerCount: 2
Fore
SplineSet
0 798 m 1
 400 798 l 1
 400 600 l 1
 0 600 l 1
 0 798 l 1
0 398 m 1
 400 398 l 1
 400 200 l 1
 0 200 l 1
 0 398 l 1
EndSplineSet
Validated: 1
EndChar

StartChar: y
Encoding: 121 121 90
Width: 600
VWidth: 0
Flags: HW
LayerCount: 2
Fore
SplineSet
200 600 m 1
 0 600 l 1
 0 798 l 1
 200 798 l 1
 400 798 l 1
 400 200 l 1
 200 200 l 1
 0 200 l 1
 0 398 l 1
 200 398 l 1
 200 600 l 1
EndSplineSet
Validated: 1
EndChar

StartChar: z
Encoding: 122 122 91
Width: 600
VWidth: 0
Flags: HW
LayerCount: 2
Fore
SplineSet
400 200 m 1
 200 200 l 1
 0 200 l 1
 0 398 l 1
 200 398 l 1
 200 598 l 1
 400 598 l 1
 400 200 l 1
0 600 m 1
 0 798 l 1
 200 798 l 1
 200 600 l 1
 0 600 l 1
EndSplineSet
Validated: 1
EndChar

StartChar: aacute
Encoding: 225 225 194
Width: 600
VWidth: 0
Flags: HW
LayerCount: 2
Fore
SplineSet
0 798 m 1
 200 798 l 1
 200 600 l 1
 0 600 l 1
 0 798 l 1
200 398 m 1
 400 398 l 1
 400 200 l 1
 200 200 l 1
 200 398 l 1
EndSplineSet
Validated: 1
EndChar

StartChar: eacute
Encoding: 233 233 202
Width: 600
VWidth: 0
Flags: HW
LayerCount: 2
Fore
SplineSet
400 400 m 1
 200 400 l 1
 200 798 l 1
 400 798 l 1
 400 400 l 1
200 200 m 1
 0 200 l 1
 0 398 l 1
 200 398 l 1
 200 200 l 1
EndSplineSet
Validated: 1
EndChar

StartChar: iacute
Encoding: 237 237 206
Width: 600
VWidth: 0
Flags: HW
LayerCount: 2
Fore
SplineSet
400 798 m 1
 400 600 l 1
 200 600 l 1
 200 798 l 1
 400 798 l 1
200 398 m 1
 200 200 l 1
 0 200 l 1
 0 398 l 1
 200 398 l 1
EndSplineSet
Validated: 1
EndChar

StartChar: oacute
Encoding: 243 243 212
Width: 600
VWidth: 0
Flags: HW
LayerCount: 2
Fore
SplineSet
400 798 m 1
 400 600 l 1
 200 600 l 1
 200 798 l 1
 400 798 l 1
400 398 m 1
 400 200 l 1
 200 200 l 1
 200 398 l 1
 400 398 l 1
200 598 m 1
 200 400 l 1
 0 400 l 1
 0 598 l 1
 200 598 l 1
EndSplineSet
Validated: 1
EndChar

StartChar: uacute
Encoding: 250 250 219
Width: 600
VWidth: 0
Flags: HW
LayerCount: 2
Fore
SplineSet
400 200 m 1
 0 200 l 1
 0 398 l 1
 400 398 l 1
 400 200 l 1
400 600 m 1
 200 600 l 1
 200 798 l 1
 400 798 l 1
 400 600 l 1
EndSplineSet
Validated: 1
EndChar

StartChar: yacute
Encoding: 253 253 222
Width: 600
VWidth: 0
Flags: HW
LayerCount: 2
Fore
SplineSet
200 600 m 1
 200 398 l 1
 400 398 l 1
 400 200 l 1
 200 200 l 1
 0 200 l 1
 0 798 l 1
 200 798 l 1
 400 798 l 1
 400 600 l 1
 200 600 l 1
EndSplineSet
Validated: 1
EndChar

StartChar: ccaron
Encoding: 269 269 238
Width: 600
VWidth: 0
Flags: HW
LayerCount: 2
Fore
SplineSet
400 798 m 1
 400 600 l 1
 0 600 l 1
 0 798 l 1
 400 798 l 1
400 398 m 1
 400 200 l 1
 200 200 l 1
 200 398 l 1
 400 398 l 1
EndSplineSet
Validated: 1
EndChar

StartChar: dcaron
Encoding: 271 271 240
Width: 600
VWidth: 0
Flags: HW
LayerCount: 2
Fore
SplineSet
200 600 m 1
 0 600 l 1
 0 798 l 1
 200 798 l 1
 400 798 l 1
 400 200 l 1
 200 200 l 1
 200 600 l 1
EndSplineSet
Validated: 1
EndChar

StartChar: ecaron
Encoding: 283 283 252
Width: 600
VWidth: 0
Flags: HW
LayerCount: 2
Fore
SplineSet
0 400 m 1
 0 798 l 1
 200 798 l 1
 200 400 l 1
 0 400 l 1
200 200 m 1
 200 398 l 1
 400 398 l 1
 400 200 l 1
 200 200 l 1
EndSplineSet
Validated: 1
EndChar

StartChar: ncaron
Encoding: 328 328 296
Width: 600
VWidth: 0
Flags: HW
LayerCount: 2
Fore
SplineSet
0 798 m 1
 200 798 l 1
 400 798 l 1
 400 600 l 1
 200 600 l 1
 200 400 l 1
 0 400 l 1
 0 798 l 1
400 398 m 1
 400 200 l 1
 200 200 l 1
 200 398 l 1
 400 398 l 1
EndSplineSet
Validated: 1
EndChar

StartChar: rcaron
Encoding: 345 345 313
Width: 600
VWidth: 0
Flags: HW
LayerCount: 2
Fore
SplineSet
400 798 m 1
 400 200 l 1
 200 200 l 1
 200 400 l 1
 0 400 l 1
 0 598 l 1
 200 598 l 1
 200 798 l 1
 400 798 l 1
EndSplineSet
Validated: 1
EndChar

StartChar: scaron
Encoding: 353 353 321
Width: 600
VWidth: 0
Flags: HW
LayerCount: 2
Fore
SplineSet
400 598 m 1
 400 200 l 1
 200 200 l 1
 200 598 l 1
 400 598 l 1
200 798 m 1
 200 600 l 1
 0 600 l 1
 0 798 l 1
 200 798 l 1
EndSplineSet
Validated: 1
EndChar

StartChar: tcaron
Encoding: 357 357 325
Width: 600
VWidth: 0
Flags: HW
LayerCount: 2
Fore
SplineSet
200 798 m 1
 200 598 l 1
 400 598 l 1
 400 200 l 1
 200 200 l 1
 200 400 l 1
 0 400 l 1
 0 798 l 1
 200 798 l 1
EndSplineSet
Validated: 1
EndChar

StartChar: zcaron
Encoding: 382 382 350
Width: 600
VWidth: 0
Flags: HW
LayerCount: 2
Fore
SplineSet
0 200 m 1
 0 598 l 1
 200 598 l 1
 200 398 l 1
 400 398 l 1
 400 200 l 1
 200 200 l 1
 0 200 l 1
400 600 m 1
 200 600 l 1
 200 798 l 1
 400 798 l 1
 400 600 l 1
EndSplineSet
Validated: 1
EndChar

